<mxfile host="app.diagrams.net" modified="2023-10-03T09:03:56.326Z" agent="Mozilla/5.0 (Windows NT 10.0; Win64; x64; rv:109.0) Gecko/20100101 Firefox/118.0" etag="nwj-K0K2R9ZRAibiRE5b" version="22.0.0" type="device">
  <diagram name="Страница — 1" id="6XZC4HkOa8f8BEDeI295">
    <mxGraphModel dx="1050" dy="558" grid="1" gridSize="10" guides="1" tooltips="1" connect="1" arrows="1" fold="1" page="1" pageScale="1" pageWidth="827" pageHeight="1169" math="0" shadow="0">
      <root>
        <mxCell id="0" />
        <mxCell id="1" parent="0" />
        <mxCell id="RkcGXebgMRRcdRKFjL-2-2" value="&lt;div&gt;Продажи&lt;/div&gt;&lt;div&gt;&lt;br&gt;&lt;/div&gt;" style="shape=cylinder3;whiteSpace=wrap;html=1;boundedLbl=1;backgroundOutline=1;size=15;" parent="1" vertex="1">
          <mxGeometry x="140" y="160" width="60" height="80" as="geometry" />
        </mxCell>
        <mxCell id="P8nS3D-8zabNuRGLpAyI-12" style="edgeStyle=orthogonalEdgeStyle;rounded=0;orthogonalLoop=1;jettySize=auto;html=1;entryX=0;entryY=0.5;entryDx=0;entryDy=0;entryPerimeter=0;" edge="1" parent="1" source="RkcGXebgMRRcdRKFjL-2-3" target="P8nS3D-8zabNuRGLpAyI-2">
          <mxGeometry relative="1" as="geometry">
            <mxPoint x="260" y="320" as="targetPoint" />
          </mxGeometry>
        </mxCell>
        <mxCell id="RkcGXebgMRRcdRKFjL-2-3" value="Склад" style="shape=cylinder3;whiteSpace=wrap;html=1;boundedLbl=1;backgroundOutline=1;size=15;" parent="1" vertex="1">
          <mxGeometry x="140" y="280" width="60" height="80" as="geometry" />
        </mxCell>
        <mxCell id="P8nS3D-8zabNuRGLpAyI-11" style="edgeStyle=orthogonalEdgeStyle;rounded=0;orthogonalLoop=1;jettySize=auto;html=1;entryX=0.013;entryY=0.825;entryDx=0;entryDy=0;entryPerimeter=0;" edge="1" parent="1" source="RkcGXebgMRRcdRKFjL-2-4" target="P8nS3D-8zabNuRGLpAyI-2">
          <mxGeometry relative="1" as="geometry">
            <mxPoint x="260" y="200" as="targetPoint" />
          </mxGeometry>
        </mxCell>
        <mxCell id="RkcGXebgMRRcdRKFjL-2-4" value="&lt;div&gt;CRM&lt;/div&gt;&lt;div&gt;&lt;br&gt;&lt;/div&gt;" style="shape=cylinder3;whiteSpace=wrap;html=1;boundedLbl=1;backgroundOutline=1;size=15;" parent="1" vertex="1">
          <mxGeometry x="140" y="400" width="60" height="80" as="geometry" />
        </mxCell>
        <mxCell id="P8nS3D-8zabNuRGLpAyI-1" value="&lt;div&gt;Google Analytics API&lt;/div&gt;" style="label;whiteSpace=wrap;html=1;image=img/clipart/Gear_128x128.png" vertex="1" parent="1">
          <mxGeometry x="100" y="524.5" width="140" height="60" as="geometry" />
        </mxCell>
        <mxCell id="P8nS3D-8zabNuRGLpAyI-2" value="&lt;div&gt;Хранилище данных&lt;/div&gt;&lt;div&gt;Staging&lt;/div&gt;&lt;div&gt;Bisiness Layer&lt;br&gt;&lt;/div&gt;" style="shape=cylinder3;whiteSpace=wrap;html=1;boundedLbl=1;backgroundOutline=1;size=15;" vertex="1" parent="1">
          <mxGeometry x="310" y="280" width="160" height="120" as="geometry" />
        </mxCell>
        <mxCell id="P8nS3D-8zabNuRGLpAyI-3" value="SQL" style="label;whiteSpace=wrap;html=1;image=img/clipart/Gear_128x128.png" vertex="1" parent="1">
          <mxGeometry x="560" y="160" width="110" height="60" as="geometry" />
        </mxCell>
        <mxCell id="P8nS3D-8zabNuRGLpAyI-4" value="Excel" style="label;whiteSpace=wrap;html=1;image=img/clipart/Gear_128x128.png" vertex="1" parent="1">
          <mxGeometry x="560" y="280" width="140" height="60" as="geometry" />
        </mxCell>
        <mxCell id="P8nS3D-8zabNuRGLpAyI-6" value="Business Inteligence" style="label;whiteSpace=wrap;html=1;align=center;verticalAlign=bottom;spacingLeft=0;spacingBottom=4;imageAlign=center;imageVerticalAlign=top;image=img/clipart/Gear_128x128.png" vertex="1" parent="1">
          <mxGeometry x="560" y="400" width="150" height="80" as="geometry" />
        </mxCell>
        <mxCell id="P8nS3D-8zabNuRGLpAyI-7" style="edgeStyle=orthogonalEdgeStyle;rounded=0;orthogonalLoop=1;jettySize=auto;html=1;entryX=1;entryY=0.5;entryDx=0;entryDy=0;entryPerimeter=0;" edge="1" parent="1" source="P8nS3D-8zabNuRGLpAyI-6" target="RkcGXebgMRRcdRKFjL-2-2">
          <mxGeometry relative="1" as="geometry">
            <Array as="points">
              <mxPoint x="620" y="500" />
              <mxPoint x="490" y="500" />
              <mxPoint x="490" y="200" />
            </Array>
          </mxGeometry>
        </mxCell>
        <mxCell id="P8nS3D-8zabNuRGLpAyI-8" style="edgeStyle=orthogonalEdgeStyle;rounded=0;orthogonalLoop=1;jettySize=auto;html=1;" edge="1" parent="1" source="P8nS3D-8zabNuRGLpAyI-6">
          <mxGeometry relative="1" as="geometry">
            <mxPoint x="470" y="370" as="targetPoint" />
            <Array as="points">
              <mxPoint x="515" y="440" />
              <mxPoint x="515" y="370" />
              <mxPoint x="469" y="370" />
            </Array>
          </mxGeometry>
        </mxCell>
        <mxCell id="P8nS3D-8zabNuRGLpAyI-9" style="edgeStyle=orthogonalEdgeStyle;rounded=0;orthogonalLoop=1;jettySize=auto;html=1;entryX=1;entryY=0.5;entryDx=0;entryDy=0;entryPerimeter=0;" edge="1" parent="1" source="P8nS3D-8zabNuRGLpAyI-4" target="P8nS3D-8zabNuRGLpAyI-2">
          <mxGeometry relative="1" as="geometry">
            <Array as="points">
              <mxPoint x="515" y="320" />
              <mxPoint x="515" y="340" />
            </Array>
          </mxGeometry>
        </mxCell>
        <mxCell id="P8nS3D-8zabNuRGLpAyI-13" value="" style="shape=crossbar;whiteSpace=wrap;html=1;rounded=1;direction=south;" vertex="1" parent="1">
          <mxGeometry x="230" y="180" width="20" height="300" as="geometry" />
        </mxCell>
        <mxCell id="P8nS3D-8zabNuRGLpAyI-16" style="edgeStyle=orthogonalEdgeStyle;rounded=0;orthogonalLoop=1;jettySize=auto;html=1;entryX=0;entryY=0;entryDx=0;entryDy=37.5;entryPerimeter=0;exitX=1;exitY=1;exitDx=0;exitDy=-15;exitPerimeter=0;" edge="1" parent="1" source="RkcGXebgMRRcdRKFjL-2-2" target="P8nS3D-8zabNuRGLpAyI-2">
          <mxGeometry relative="1" as="geometry">
            <Array as="points">
              <mxPoint x="200" y="230" />
              <mxPoint x="220" y="230" />
              <mxPoint x="220" y="290" />
              <mxPoint x="290" y="290" />
              <mxPoint x="290" y="318" />
            </Array>
          </mxGeometry>
        </mxCell>
        <mxCell id="P8nS3D-8zabNuRGLpAyI-17" value="" style="shape=crossbar;whiteSpace=wrap;html=1;rounded=1;direction=south;" vertex="1" parent="1">
          <mxGeometry x="530" y="180" width="20" height="270" as="geometry" />
        </mxCell>
        <mxCell id="P8nS3D-8zabNuRGLpAyI-19" style="edgeStyle=orthogonalEdgeStyle;rounded=0;orthogonalLoop=1;jettySize=auto;html=1;entryX=1.013;entryY=0.183;entryDx=0;entryDy=0;entryPerimeter=0;" edge="1" parent="1" source="P8nS3D-8zabNuRGLpAyI-3" target="P8nS3D-8zabNuRGLpAyI-2">
          <mxGeometry relative="1" as="geometry">
            <Array as="points">
              <mxPoint x="520" y="190" />
              <mxPoint x="520" y="302" />
            </Array>
          </mxGeometry>
        </mxCell>
        <mxCell id="P8nS3D-8zabNuRGLpAyI-22" value="Business Inteligence" style="label;whiteSpace=wrap;html=1;align=center;verticalAlign=bottom;spacingLeft=0;spacingBottom=4;imageAlign=center;imageVerticalAlign=top;image=img/clipart/Gear_128x128.png" vertex="1" parent="1">
          <mxGeometry x="110" y="620" width="150" height="80" as="geometry" />
        </mxCell>
        <mxCell id="P8nS3D-8zabNuRGLpAyI-23" style="edgeStyle=orthogonalEdgeStyle;rounded=0;orthogonalLoop=1;jettySize=auto;html=1;entryX=0;entryY=0.5;entryDx=0;entryDy=0;entryPerimeter=0;" edge="1" parent="1" source="P8nS3D-8zabNuRGLpAyI-22" target="RkcGXebgMRRcdRKFjL-2-3">
          <mxGeometry relative="1" as="geometry">
            <Array as="points">
              <mxPoint x="30" y="660" />
              <mxPoint x="30" y="320" />
            </Array>
          </mxGeometry>
        </mxCell>
      </root>
    </mxGraphModel>
  </diagram>
</mxfile>
